<mxfile host="Electron" modified="2024-07-24T01:01:16.074Z" agent="Mozilla/5.0 (Windows NT 10.0; Win64; x64) AppleWebKit/537.36 (KHTML, like Gecko) draw.io/21.7.5 Chrome/114.0.5735.289 Electron/25.8.1 Safari/537.36" etag="lFnaQpG-HqvOLXAnXMG8" version="21.7.5" type="device">
  <diagram name="第 1 页" id="KWvOELfXXFuOR0ZtLIgL">
    <mxGraphModel dx="1238" dy="628" grid="0" gridSize="10" guides="1" tooltips="1" connect="1" arrows="1" fold="1" page="1" pageScale="1" pageWidth="180" pageHeight="200" math="0" shadow="0">
      <root>
        <mxCell id="0" />
        <mxCell id="1" parent="0" />
        <mxCell id="z9J9eftszzI_vTkb0NqK-2" value="PWM" style="rounded=0;whiteSpace=wrap;html=1;" parent="1" vertex="1">
          <mxGeometry x="331" y="442" width="104" height="48" as="geometry" />
        </mxCell>
        <mxCell id="z9J9eftszzI_vTkb0NqK-3" value="Perioherals&lt;div&gt;Clock&lt;/div&gt;" style="shape=cylinder3;whiteSpace=wrap;html=1;boundedLbl=1;backgroundOutline=1;size=15;" parent="1" vertex="1">
          <mxGeometry x="339" y="619" width="88" height="64" as="geometry" />
        </mxCell>
        <mxCell id="z9J9eftszzI_vTkb0NqK-4" value="" style="endArrow=classic;html=1;rounded=0;exitX=0.5;exitY=0;exitDx=0;exitDy=0;exitPerimeter=0;entryX=0.5;entryY=1;entryDx=0;entryDy=0;" parent="1" source="z9J9eftszzI_vTkb0NqK-3" target="z9J9eftszzI_vTkb0NqK-2" edge="1">
          <mxGeometry width="50" height="50" relative="1" as="geometry">
            <mxPoint x="380" y="536" as="sourcePoint" />
            <mxPoint x="430" y="486" as="targetPoint" />
          </mxGeometry>
        </mxCell>
        <mxCell id="z9J9eftszzI_vTkb0NqK-5" value="PWM Channel0" style="rounded=0;whiteSpace=wrap;html=1;" parent="1" vertex="1">
          <mxGeometry x="513" y="354" width="132" height="32" as="geometry" />
        </mxCell>
        <mxCell id="z9J9eftszzI_vTkb0NqK-6" value="PWM Channel1" style="rounded=0;whiteSpace=wrap;html=1;" parent="1" vertex="1">
          <mxGeometry x="513" y="402" width="132" height="32" as="geometry" />
        </mxCell>
        <mxCell id="z9J9eftszzI_vTkb0NqK-7" value="PWM Channel2" style="rounded=0;whiteSpace=wrap;html=1;" parent="1" vertex="1">
          <mxGeometry x="513" y="450" width="132" height="32" as="geometry" />
        </mxCell>
        <mxCell id="z9J9eftszzI_vTkb0NqK-8" value="PWM Channel3" style="rounded=0;whiteSpace=wrap;html=1;" parent="1" vertex="1">
          <mxGeometry x="513" y="498" width="132" height="32" as="geometry" />
        </mxCell>
        <mxCell id="z9J9eftszzI_vTkb0NqK-9" value="PWM Channel4" style="rounded=0;whiteSpace=wrap;html=1;" parent="1" vertex="1">
          <mxGeometry x="513" y="546" width="132" height="32" as="geometry" />
        </mxCell>
        <mxCell id="z9J9eftszzI_vTkb0NqK-10" value="" style="endArrow=classic;html=1;rounded=0;exitX=1;exitY=0.5;exitDx=0;exitDy=0;entryX=0;entryY=0.5;entryDx=0;entryDy=0;" parent="1" source="z9J9eftszzI_vTkb0NqK-2" target="z9J9eftszzI_vTkb0NqK-5" edge="1">
          <mxGeometry width="50" height="50" relative="1" as="geometry">
            <mxPoint x="705" y="517" as="sourcePoint" />
            <mxPoint x="755" y="467" as="targetPoint" />
            <Array as="points" />
          </mxGeometry>
        </mxCell>
        <mxCell id="z9J9eftszzI_vTkb0NqK-11" value="" style="endArrow=classic;html=1;rounded=0;exitX=1;exitY=0.5;exitDx=0;exitDy=0;entryX=0;entryY=0.5;entryDx=0;entryDy=0;" parent="1" source="z9J9eftszzI_vTkb0NqK-2" target="z9J9eftszzI_vTkb0NqK-6" edge="1">
          <mxGeometry width="50" height="50" relative="1" as="geometry">
            <mxPoint x="444" y="566" as="sourcePoint" />
            <mxPoint x="494" y="516" as="targetPoint" />
          </mxGeometry>
        </mxCell>
        <mxCell id="z9J9eftszzI_vTkb0NqK-12" value="" style="endArrow=classic;html=1;rounded=0;exitX=1;exitY=0.5;exitDx=0;exitDy=0;entryX=0;entryY=0.5;entryDx=0;entryDy=0;" parent="1" source="z9J9eftszzI_vTkb0NqK-2" target="z9J9eftszzI_vTkb0NqK-7" edge="1">
          <mxGeometry width="50" height="50" relative="1" as="geometry">
            <mxPoint x="456" y="580" as="sourcePoint" />
            <mxPoint x="506" y="530" as="targetPoint" />
          </mxGeometry>
        </mxCell>
        <mxCell id="z9J9eftszzI_vTkb0NqK-13" value="" style="endArrow=classic;html=1;rounded=0;exitX=1;exitY=0.5;exitDx=0;exitDy=0;entryX=0;entryY=0.5;entryDx=0;entryDy=0;" parent="1" source="z9J9eftszzI_vTkb0NqK-2" target="z9J9eftszzI_vTkb0NqK-8" edge="1">
          <mxGeometry width="50" height="50" relative="1" as="geometry">
            <mxPoint x="430" y="579" as="sourcePoint" />
            <mxPoint x="480" y="529" as="targetPoint" />
          </mxGeometry>
        </mxCell>
        <mxCell id="z9J9eftszzI_vTkb0NqK-14" value="" style="endArrow=classic;html=1;rounded=0;exitX=1;exitY=0.5;exitDx=0;exitDy=0;entryX=0;entryY=0.5;entryDx=0;entryDy=0;" parent="1" source="z9J9eftszzI_vTkb0NqK-2" target="z9J9eftszzI_vTkb0NqK-9" edge="1">
          <mxGeometry width="50" height="50" relative="1" as="geometry">
            <mxPoint x="443" y="603" as="sourcePoint" />
            <mxPoint x="493" y="553" as="targetPoint" />
          </mxGeometry>
        </mxCell>
        <mxCell id="z9J9eftszzI_vTkb0NqK-15" value="" style="endArrow=classic;html=1;rounded=0;exitX=1;exitY=0.5;exitDx=0;exitDy=0;" parent="1" source="z9J9eftszzI_vTkb0NqK-6" edge="1">
          <mxGeometry width="50" height="50" relative="1" as="geometry">
            <mxPoint x="788" y="490" as="sourcePoint" />
            <mxPoint x="918" y="418" as="targetPoint" />
          </mxGeometry>
        </mxCell>
        <mxCell id="z9J9eftszzI_vTkb0NqK-16" value="" style="endArrow=classic;html=1;rounded=0;exitX=1;exitY=0.5;exitDx=0;exitDy=0;" parent="1" source="z9J9eftszzI_vTkb0NqK-7" edge="1">
          <mxGeometry width="50" height="50" relative="1" as="geometry">
            <mxPoint x="735" y="502" as="sourcePoint" />
            <mxPoint x="916" y="466" as="targetPoint" />
          </mxGeometry>
        </mxCell>
        <mxCell id="z9J9eftszzI_vTkb0NqK-17" value="" style="endArrow=classic;html=1;rounded=0;exitX=1;exitY=0.5;exitDx=0;exitDy=0;" parent="1" source="z9J9eftszzI_vTkb0NqK-8" edge="1">
          <mxGeometry width="50" height="50" relative="1" as="geometry">
            <mxPoint x="802" y="591" as="sourcePoint" />
            <mxPoint x="917" y="514" as="targetPoint" />
          </mxGeometry>
        </mxCell>
        <mxCell id="z9J9eftszzI_vTkb0NqK-18" value="GPIO PB0" style="text;html=1;align=center;verticalAlign=middle;whiteSpace=wrap;rounded=0;" parent="1" vertex="1">
          <mxGeometry x="710" y="339" width="60" height="30" as="geometry" />
        </mxCell>
        <mxCell id="z9J9eftszzI_vTkb0NqK-19" value="GPIO PB1" style="text;html=1;align=center;verticalAlign=middle;whiteSpace=wrap;rounded=0;" parent="1" vertex="1">
          <mxGeometry x="710" y="386" width="60" height="30" as="geometry" />
        </mxCell>
        <mxCell id="z9J9eftszzI_vTkb0NqK-20" value="GPIO PB2" style="text;html=1;align=center;verticalAlign=middle;whiteSpace=wrap;rounded=0;" parent="1" vertex="1">
          <mxGeometry x="710" y="430" width="60" height="30" as="geometry" />
        </mxCell>
        <mxCell id="z9J9eftszzI_vTkb0NqK-21" value="GPIO PB3" style="text;html=1;align=center;verticalAlign=middle;whiteSpace=wrap;rounded=0;" parent="1" vertex="1">
          <mxGeometry x="710" y="482" width="60" height="30" as="geometry" />
        </mxCell>
        <mxCell id="z9J9eftszzI_vTkb0NqK-22" value="GPIO PA7" style="text;html=1;align=center;verticalAlign=middle;whiteSpace=wrap;rounded=0;" parent="1" vertex="1">
          <mxGeometry x="710" y="530" width="60" height="30" as="geometry" />
        </mxCell>
        <mxCell id="z9J9eftszzI_vTkb0NqK-23" value="" style="endArrow=none;dashed=1;html=1;rounded=0;" parent="1" edge="1">
          <mxGeometry width="50" height="50" relative="1" as="geometry">
            <mxPoint x="294" y="602" as="sourcePoint" />
            <mxPoint x="296" y="606" as="targetPoint" />
            <Array as="points">
              <mxPoint x="294" y="321" />
              <mxPoint x="698" y="321" />
              <mxPoint x="698" y="602" />
            </Array>
          </mxGeometry>
        </mxCell>
        <mxCell id="z9J9eftszzI_vTkb0NqK-24" value="PWM" style="text;html=1;align=center;verticalAlign=middle;whiteSpace=wrap;rounded=0;" parent="1" vertex="1">
          <mxGeometry x="302" y="288" width="60" height="30" as="geometry" />
        </mxCell>
        <mxCell id="z9J9eftszzI_vTkb0NqK-25" value="" style="endArrow=none;dashed=1;html=1;dashPattern=1 3;strokeWidth=2;rounded=0;" parent="1" edge="1">
          <mxGeometry width="50" height="50" relative="1" as="geometry">
            <mxPoint x="830" y="271" as="sourcePoint" />
            <mxPoint x="833" y="264" as="targetPoint" />
            <Array as="points">
              <mxPoint x="830" y="713" />
              <mxPoint x="248" y="713" />
              <mxPoint x="248" y="264" />
            </Array>
          </mxGeometry>
        </mxCell>
        <mxCell id="z9J9eftszzI_vTkb0NqK-26" value="CPU" style="text;html=1;align=center;verticalAlign=middle;whiteSpace=wrap;rounded=0;" parent="1" vertex="1">
          <mxGeometry x="754" y="675" width="60" height="30" as="geometry" />
        </mxCell>
        <mxCell id="z9J9eftszzI_vTkb0NqK-27" value="" style="endArrow=none;html=1;rounded=0;" parent="1" edge="1">
          <mxGeometry width="50" height="50" relative="1" as="geometry">
            <mxPoint x="936" y="369" as="sourcePoint" />
            <mxPoint x="1038" y="369" as="targetPoint" />
            <Array as="points">
              <mxPoint x="957" y="369" />
              <mxPoint x="957" y="357" />
              <mxPoint x="976" y="357" />
              <mxPoint x="976" y="369" />
              <mxPoint x="999" y="369" />
              <mxPoint x="999" y="357" />
              <mxPoint x="1018" y="357" />
              <mxPoint x="1018" y="369" />
            </Array>
          </mxGeometry>
        </mxCell>
        <mxCell id="z9J9eftszzI_vTkb0NqK-28" value="" style="endArrow=classic;html=1;rounded=0;exitX=1;exitY=0.5;exitDx=0;exitDy=0;" parent="1" edge="1">
          <mxGeometry width="50" height="50" relative="1" as="geometry">
            <mxPoint x="645" y="369" as="sourcePoint" />
            <mxPoint x="918" y="369" as="targetPoint" />
          </mxGeometry>
        </mxCell>
        <mxCell id="z9J9eftszzI_vTkb0NqK-29" value="" style="endArrow=classic;html=1;rounded=0;exitX=1;exitY=0.5;exitDx=0;exitDy=0;" parent="1" edge="1">
          <mxGeometry width="50" height="50" relative="1" as="geometry">
            <mxPoint x="645" y="561.41" as="sourcePoint" />
            <mxPoint x="917" y="561.41" as="targetPoint" />
          </mxGeometry>
        </mxCell>
        <mxCell id="z9J9eftszzI_vTkb0NqK-34" value=".&lt;br&gt;.&lt;br&gt;.&lt;br&gt;.&lt;br&gt;.&lt;br&gt;." style="rounded=0;whiteSpace=wrap;html=1;strokeColor=none;fontStyle=1" parent="1" vertex="1">
          <mxGeometry x="964" y="415" width="53" height="151" as="geometry" />
        </mxCell>
      </root>
    </mxGraphModel>
  </diagram>
</mxfile>
